<svg xmlns="http://www.w3.org/2000/svg" width="147.269" height="147.269" viewBox="0 0 147.269 147.269">
  <g id="Group_1319" data-name="Group 1319" transform="matrix(0.985, -0.174, 0.174, 0.985, -1247.371, 70.893)">
    <text id="B" transform="matrix(0.911, -0.412, 0.412, 0.911, 1276.38, 191.939)" fill="#231f20" font-size="15.625" font-family="SegoeUI, Segoe UI"><tspan x="0" y="0">B</tspan></text>
    <text id="R" transform="translate(1287.182 187.221) rotate(-9.701)" fill="#231f20" font-size="15.625" font-family="SegoeUI, Segoe UI"><tspan x="0" y="0">R</tspan></text>
    <text id="E" transform="matrix(0.997, 0.078, -0.078, 0.997, 1299.749, 185.523)" fill="#231f20" font-size="15.625" font-family="SegoeUI, Segoe UI"><tspan x="0" y="0">E</tspan></text>
    <text id="W" transform="translate(1310.995 186.394) rotate(20.839)" fill="#231f20" font-size="15.625" font-family="SegoeUI, Segoe UI"><tspan x="0" y="0">W</tspan></text>
    <text id="P" transform="matrix(0.197, 0.98, -0.98, 0.197, 1243.75, 238.873)" fill="#231f20" font-size="15.625" font-family="SegoeUI, Segoe UI"><tspan x="0" y="0">P</tspan></text>
    <text id="O" transform="translate(1246.984 252.374) rotate(63.009)" fill="#231f20" font-size="15.625" font-family="SegoeUI, Segoe UI"><tspan x="0" y="0">O</tspan></text>
    <text id="U" transform="translate(1255.424 267.211) rotate(46.366)" fill="#231f20" font-size="15.625" font-family="SegoeUI, Segoe UI"><tspan x="0" y="0">U</tspan></text>
    <text id="R-2" data-name="R" transform="matrix(0.859, 0.512, -0.512, 0.859, 1266.875, 278.292)" fill="#231f20" font-size="15.625" font-family="SegoeUI, Segoe UI"><tspan x="0" y="0">R</tspan></text>
    <text id="_" data-name=" " transform="matrix(0.942, 0.335, -0.335, 0.942, 1279.69, 285.099)" fill="#231f20" font-size="15.625" font-family="SegoeUI, Segoe UI"><tspan x="0" y="0"> </tspan></text>
    <text id="_2" data-name=" " transform="matrix(0.977, 0.215, -0.215, 0.977, 1286.527, 287.324)" fill="#231f20" font-size="15.625" font-family="SegoeUI, Segoe UI"><tspan x="0" y="0"> </tspan></text>
    <text id="_3" data-name=" " transform="translate(1293.569 288.545) rotate(5.211)" fill="#231f20" font-size="15.625" font-family="SegoeUI, Segoe UI"><tspan x="0" y="0"> </tspan></text>
    <text id="_4" data-name=" " transform="translate(1300.595 288.975) rotate(-1.814)" fill="#231f20" font-size="15.625" font-family="SegoeUI, Segoe UI"><tspan x="0" y="0"> </tspan></text>
    <text id="_5" data-name=" " transform="translate(1307.665 288.598) rotate(-8.935)" fill="#231f20" font-size="15.625" font-family="SegoeUI, Segoe UI"><tspan x="0" y="0"> </tspan></text>
    <text id="_6" data-name=" " transform="matrix(0.961, -0.278, 0.278, 0.961, 1314.64, 287.17)" fill="#231f20" font-size="15.625" font-family="SegoeUI, Segoe UI"><tspan x="0" y="0"> </tspan></text>
    <text id="E-2" data-name="E" transform="matrix(0.894, -0.448, 0.448, 0.894, 1321.775, 285.076)" fill="#231f20" font-size="15.625" font-family="SegoeUI, Segoe UI"><tspan x="0" y="0">E</tspan></text>
    <text id="N" transform="translate(1333.992 278.433) rotate(-41.925)" fill="#231f20" font-size="15.625" font-family="SegoeUI, Segoe UI"><tspan x="0" y="0">N</tspan></text>
    <text id="J" transform="matrix(0.563, -0.826, 0.826, 0.563, 1345.581, 266.851)" fill="#231f20" font-size="15.625" font-family="SegoeUI, Segoe UI"><tspan x="0" y="0">J</tspan></text>
    <text id="O-2" data-name="O" transform="translate(1351.736 257.538) rotate(-69.802)" fill="#231f20" font-size="15.625" font-family="SegoeUI, Segoe UI"><tspan x="0" y="0">O</tspan></text>
    <text id="Y" transform="translate(1356.725 241.471) rotate(-85.173)" fill="#231f20" font-size="15.625" font-family="SegoeUI, Segoe UI"><tspan x="0" y="0">Y</tspan></text>
    <circle id="Ellipse_3" data-name="Ellipse 3" cx="40.677" cy="40.677" r="40.677" transform="translate(1259.783 191.413)" fill="none" stroke="#231f20" stroke-miterlimit="10" stroke-width="1.395"/>
    <circle id="Ellipse_4" data-name="Ellipse 4" cx="62.865" cy="62.865" r="62.865" transform="translate(1237.595 169.225)" fill="none" stroke="#231f20" stroke-miterlimit="10" stroke-width="1.395"/>
    <line id="Line_1" data-name="Line 1" x1="20.74" y2="8.713" transform="translate(1338.362 208.599)" fill="none" stroke="#231f20" stroke-miterlimit="10" stroke-width="1.395"/>
    <line id="Line_2" data-name="Line 2" x2="20.74" y2="8.713" transform="translate(1242.135 208.599)" fill="none" stroke="#231f20" stroke-miterlimit="10" stroke-width="1.395"/>
    <line id="Line_3" data-name="Line 3" y2="21.786" transform="translate(1300.46 273.169)" fill="none" stroke="#231f20" stroke-miterlimit="10" stroke-width="1.395"/>
  </g>
</svg>
