<svg xmlns="http://www.w3.org/2000/svg" width="57.583" height="13.612" viewBox="0 0 57.583 13.612">
  <g id="Group_1318" data-name="Group 1318" transform="translate(-1271.669 -225.284)">
    <path id="Path_16" data-name="Path 16" d="M1279.776,225.552h-7.789a.3.3,0,0,0-.318.335v12.161a.3.3,0,0,0,.318.336h7.789a.3.3,0,0,0,.318-.336v-.894a.3.3,0,0,0-.318-.335h-6.345V232.66h5.219a.3.3,0,0,0,.317-.334v-.9a.3.3,0,0,0-.317-.335h-5.219v-3.979h6.345a.3.3,0,0,0,.318-.335v-.9a.3.3,0,0,0-.318-.335" transform="translate(0)" fill="#231f20"/>
    <path id="Path_17" data-name="Path 17" d="M1288.272,231.64l-2.816-.9c-1.352-.436-1.9-1.014-1.9-2,0-1.172,1.02-1.9,2.661-1.9a2.9,2.9,0,0,1,3.07,2.124.348.348,0,0,0,.342.29h1.014a.309.309,0,0,0,.244-.1.359.359,0,0,0,.071-.3c-.434-2.274-2.162-3.578-4.741-3.578-2.645,0-4.422,1.428-4.422,3.554,0,1.712.931,2.844,2.845,3.458l2.818.895c1.321.419,1.885,1.016,1.885,2,0,1.19-1.055,1.9-2.822,1.9s-2.871-.714-3.293-2.122a.345.345,0,0,0-.344-.29h-1.014a.306.306,0,0,0-.241.1.359.359,0,0,0-.073.3c.44,2.308,2.2,3.58,4.965,3.58,2.785,0,4.584-1.395,4.584-3.554,0-1.7-.952-2.866-2.829-3.458" transform="translate(0)" fill="#231f20"/>
    <path id="Path_18" data-name="Path 18" d="M1298.491,225.552h-4.668a.3.3,0,0,0-.317.335v12.161a.3.3,0,0,0,.317.336h1.127a.3.3,0,0,0,.318-.336V234.27h3.223c2.8,0,4.343-1.548,4.343-4.358s-1.543-4.36-4.343-4.36m2.581,4.36c0,1.8-.917,2.793-2.581,2.793h-3.223v-5.588h3.223c1.664,0,2.581.992,2.581,2.795" transform="translate(0)" fill="#231f20"/>
    <path id="Path_19" data-name="Path 19" d="M1322.568,225.528a6.684,6.684,0,1,0,6.684,6.685,6.693,6.693,0,0,0-6.684-6.685m4.963,6.685a4.964,4.964,0,1,1-4.963-4.965,4.969,4.969,0,0,1,4.963,4.965" transform="translate(0)" fill="#231f20"/>
    <path id="Path_20" data-name="Path 20" d="M1312.934,234.663c-.174-.3-.66-1.138-1-1.7a3.532,3.532,0,0,0,2.469-3.412c0-2.5-1.623-4-4.341-4h-4.506a.3.3,0,0,0-.319.335v12.161a.3.3,0,0,0,.319.336h1.125a.3.3,0,0,0,.318-.336v-4.493h3.2l.774,1.264,1.932,3.31a.445.445,0,0,0,.375.255h1.32a.3.3,0,0,0,.293-.138.3.3,0,0,0-.029-.314Zm-.292-5.111a2.308,2.308,0,0,1-2.58,2.438H1307v-4.874h3.063a2.307,2.307,0,0,1,2.58,2.436" transform="translate(0)" fill="#231f20"/>
  </g>
</svg>
